<?xml version="1.0" standalone="no"?>
<!DOCTYPE svg PUBLIC "-//W3C//DTD SVG 20010904//EN"
 "http://www.w3.org/TR/2001/REC-SVG-20010904/DTD/svg10.dtd">
<svg version="1.0" xmlns="http://www.w3.org/2000/svg"
 width="512.000000pt" height="512.000000pt" viewBox="0 0 512.000000 512.000000"
 preserveAspectRatio="xMidYMid meet">

<g transform="translate(0.000000,512.000000) scale(0.100000,-0.100000)"
fill="#000000" stroke="none">
<path d="M1713 4676 c-92 -23 -182 -74 -252 -145 -165 -166 -204 -400 -101
-607 44 -91 120 -176 196 -220 l47 -27 -6 -96 c-4 -53 -12 -247 -18 -431 -7
-184 -13 -337 -15 -339 -2 -2 -70 58 -151 134 -81 76 -153 143 -160 149 -10 9
-6 27 14 81 37 98 39 248 5 348 -99 285 -407 435 -688 333 -168 -61 -289 -196
-334 -372 -25 -98 -25 -160 0 -259 44 -171 165 -306 331 -369 l63 -23 327
-744 c181 -409 327 -744 326 -744 -1 -1 -25 -14 -52 -29 -112 -60 -194 -155
-236 -277 -21 -60 -23 -81 -23 -312 l-1 -249 28 -24 28 -24 1519 0 1519 0 28
24 28 24 -1 249 c0 231 -2 252 -23 312 -43 122 -116 208 -231 273 -30 17 -56
32 -57 33 -2 1 145 336 325 744 l328 744 62 23 c175 65 299 209 337 389 20 94
19 147 -5 239 -45 176 -166 311 -334 372 -280 102 -589 -48 -688 -333 -34
-101 -32 -251 6 -348 l27 -69 -28 -26 c-161 -152 -294 -272 -297 -269 -1 2 -8
153 -15 334 -6 182 -14 375 -18 431 l-6 101 45 26 c128 75 229 231 250 387 41
314 -212 601 -530 600 -139 -1 -271 -57 -373 -159 -203 -203 -212 -518 -20
-733 28 -31 51 -60 51 -64 0 -4 -75 -193 -166 -421 l-167 -413 -47 0 -47 0
-167 413 c-91 228 -166 417 -166 421 0 4 23 33 51 64 192 215 183 530 -20 733
-133 133 -322 187 -498 145z"/>
</g>
</svg>
